<?xml version="1.0" standalone="no"?>
<!DOCTYPE svg PUBLIC "-//W3C//DTD SVG 20010904//EN"
 "http://www.w3.org/TR/2001/REC-SVG-20010904/DTD/svg10.dtd">
<svg version="1.0" xmlns="http://www.w3.org/2000/svg"
 width="400.000000pt" height="400.000000pt" viewBox="0 0 400.000000 400.000000"
 preserveAspectRatio="xMidYMid meet">
<metadata>
Created by potrace 1.14, written by Peter Selinger 2001-2017
</metadata>
<g transform="translate(0.000000,400.000000) scale(0.100000,-0.100000)"
fill="#000000" stroke="none">
<path d="M0 2000 l0 -2000 2000 0 2000 0 0 2000 0 2000 -2000 0 -2000 0 0
-2000z m2173 1190 c21 -52 170 -423 332 -825 428 -1066 428 -1065 470 -1122
52 -68 188 -133 277 -133 28 0 28 -1 28 -65 l0 -65 -617 2 -618 3 -3 58 c-3
66 -11 60 108 77 114 16 190 40 206 65 18 28 14 43 -103 328 l-97 237 -396 0
-396 0 -36 -94 c-70 -178 -118 -332 -120 -383 -3 -61 14 -86 78 -114 44 -20
180 -49 227 -49 27 0 27 -1 27 -65 l0 -65 -465 0 -466 0 3 62 3 62 79 13 c170
29 267 114 343 303 17 41 59 143 93 225 34 83 77 186 95 230 31 76 201 488
287 695 22 52 53 129 70 170 41 100 204 491 219 524 l12 26 161 -2 160 -3 39
-95z m-1236 -2414 c2 -2 5 -13 8 -24 5 -28 -12 -38 -20 -12 -13 42 -75 49 -75
9 0 -14 14 -26 44 -39 59 -25 75 -54 48 -89 -17 -23 -26 -26 -81 -26 l-61 0 0
34 0 33 29 -31 c30 -32 38 -35 65 -25 32 12 18 44 -28 64 -99 42 -78 129 29
114 21 -3 41 -6 42 -8z m369 -70 c36 -88 53 -110 77 -100 26 9 25 160 0 167
-10 3 18 5 62 6 51 1 85 -3 93 -11 19 -19 14 -56 -8 -68 -23 -12 -18 -27 24
-72 33 -34 33 -38 -3 -38 -24 0 -36 9 -63 46 l-33 47 -3 -34 c-2 -18 1 -35 7
-37 6 -2 11 -8 11 -13 0 -5 -45 -9 -100 -9 -55 0 -100 4 -100 9 0 5 5 11 11
13 7 2 9 13 4 26 -6 19 -13 23 -43 20 -30 -2 -38 -8 -40 -25 -2 -13 1 -23 7
-23 6 0 11 -4 11 -10 0 -5 -16 -10 -35 -10 -19 0 -35 5 -35 10 0 6 5 10 11 10
9 0 30 41 74 146 8 20 20 34 27 32 7 -3 27 -39 44 -82z m1533 78 c26 -6 31
-11 31 -35 0 -34 -16 -39 -25 -8 -4 11 -18 25 -31 31 -46 21 -83 -46 -63 -116
15 -51 57 -61 96 -24 28 26 31 6 3 -22 -22 -22 -78 -27 -111 -10 -10 6 -26 25
-35 42 -22 42 -11 90 27 122 31 27 53 31 108 20z m139 -12 c-13 -2 -18 -13
-18 -38 0 -19 4 -34 8 -34 16 0 64 58 58 69 -5 7 6 11 31 11 l38 0 -30 -18
c-50 -31 -60 -48 -42 -74 23 -36 65 -78 77 -78 5 0 10 -4 10 -10 0 -5 -15 -10
-34 -10 -28 0 -39 7 -67 45 -19 24 -37 45 -41 45 -5 0 -8 -16 -8 -35 0 -19 5
-35 10 -35 6 0 10 -4 10 -10 0 -5 -20 -10 -45 -10 -44 0 -60 12 -30 24 11 4
15 22 15 76 0 58 -3 72 -17 78 -14 5 -9 8 17 12 38 6 90 -1 58 -8z m-1828 -19
l0 -27 -16 22 c-8 12 -24 22 -35 22 -17 0 -19 -7 -19 -75 0 -58 4 -77 15 -81
31 -12 13 -24 -37 -24 -46 1 -51 2 -35 14 13 11 17 29 17 90 0 69 -2 76 -19
76 -11 0 -27 -10 -35 -22 l-16 -22 0 27 0 27 90 0 90 0 0 -27z m620 2 c0 -30
-16 -33 -25 -5 -3 11 -15 20 -26 20 -17 0 -19 -8 -19 -76 0 -61 4 -79 18 -90
15 -12 10 -13 -35 -14 -29 0 -53 5 -53 10 0 6 5 10 10 10 6 0 10 33 10 80 0
66 -3 80 -16 80 -9 0 -24 -10 -35 -22 l-18 -23 -1 28 0 27 95 0 c95 0 95 0 95
-25z m180 5 c0 -23 -15 -27 -24 -5 -3 9 -19 15 -41 15 -33 0 -35 -2 -35 -35 0
-29 4 -35 21 -35 12 0 28 8 35 18 12 15 13 13 14 -20 0 -42 -4 -45 -27 -23
-23 23 -38 13 -38 -26 0 -31 3 -34 34 -37 27 -3 39 2 53 20 l19 23 -3 -30 -3
-30 -90 -2 c-77 -3 -88 -1 -72 11 13 10 17 28 17 84 0 57 -3 73 -17 81 -13 8
5 10 70 11 80 0 87 -2 87 -20z m194 4 c22 -21 20 -31 -8 -59 l-24 -24 39 -42
c21 -23 39 -44 39 -46 0 -1 -15 -3 -33 -3 -28 0 -38 7 -68 48 l-34 47 -3 -35
c-2 -19 1 -36 7 -38 27 -9 7 -22 -34 -22 -25 0 -45 5 -45 10 0 6 5 10 10 10
15 0 13 157 -2 163 -7 3 22 6 64 6 57 1 81 -3 92 -15z m295 -1 c55 -46 38
-137 -29 -160 -43 -15 -140 -17 -140 -3 0 6 5 10 10 10 15 0 13 157 -2 163 -7
3 21 6 63 6 59 1 82 -3 98 -16z m221 -5 c0 -20 -1 -20 -18 -5 -10 10 -31 17
-45 17 -24 0 -27 -4 -27 -35 0 -28 4 -35 20 -35 10 0 24 8 29 18 8 13 10 8 11
-28 0 -43 0 -44 -16 -22 -25 36 -44 28 -44 -18 0 -39 1 -40 34 -40 25 0 39 7
50 22 16 22 16 22 16 -10 l0 -32 -85 0 c-50 0 -85 4 -85 10 0 6 5 10 10 10 15
0 13 157 -2 163 -7 3 24 6 70 6 78 1 82 0 82 -21z"/>
<path d="M1716 2633 c-69 -176 -266 -677 -276 -701 -6 -13 -10 -25 -10 -27 0
-3 149 -5 330 -5 182 0 330 2 330 5 0 9 -323 810 -330 818 -3 4 -24 -37 -44
-90z"/>
<path d="M1450 730 c0 -43 17 -53 40 -25 18 21 4 65 -20 65 -17 0 -20 -7 -20
-40z"/>
<path d="M1231 706 c-13 -33 -10 -39 17 -34 19 3 19 6 7 33 l-13 30 -11 -29z"/>
<path d="M2050 731 c0 -28 4 -41 14 -41 40 0 48 73 9 78 -21 3 -23 -1 -23 -37z"/>
<path d="M2340 690 c0 -78 1 -80 24 -80 37 0 56 26 56 73 0 52 -23 87 -56 87
-23 0 -24 -2 -24 -80z"/>
</g>
</svg>
